<svg viewBox="0 0 960 1171" xml:space="preserve">
  <path fill="#55913a" d="M711.977 706.909c-.317-51.666-.633-103.33-.422-155.458 80.882-.458 161.237-.445 241.591-.493 2.618-.002 5.236-.625 7.854-.958 0 71.354 0 142.708-.469 214.531-37.904.469-75.34.469-112.777.47-29.45 0-58.9-.082-88.348.13-2.813.021-5.613 1.874-8.646 2.632-5.278-7.82-10.313-15.407-15.384-22.97-6.443-9.608-12.914-19.196-19.477-29.126-1.377-3.141-2.65-5.95-3.922-8.758"/>
  <path fill="#629d3d" d="M961 549.531c-2.618.802-5.236 1.425-7.854 1.427-80.354.048-160.709.035-241.521.028-.512-24.634-.481-49.266-.637-73.896-.257-40.725-.635-81.449-.434-122.635 83.834-.46 167.14-.458 250.446-.455z"/>
  <path fill="#6ca73f" d="M961 353.531c-83.306.466-166.612.464-250.376.459-.515-36.104-.494-72.206-.67-108.307-.064-12.923-.604-25.842-.462-39.128 3.103-.094 5.741.408 8.38.41 61.118.044 122.236.049 183.355-.01 2.963-.003 5.927-.648 8.89-.995 15.817 15.683 31.63 31.368 47.455 47.043.938.93 1.959 1.776 3.184 2.33.244 32.355.244 65.042.244 98.198"/>
  <path fill="#498637" d="M750.988 768.008c2.805-1.003 5.605-2.856 8.418-2.876 29.448-.213 58.899-.132 88.348-.132h112.777c.469 51.688.469 103.375.469 155.531-1.542 1.503-3.3 2.319-4.593 3.603-20.617 20.497-41.174 41.053-62.316 61.544-1.497-1.217-2.522-2.319-3.335-3.56-24.04-36.704-48.049-73.428-72.095-110.128-2.446-3.734-5.093-7.336-7.75-11.327-11.988-18.533-23.91-36.713-35.742-54.951-8.125-12.526-16.125-25.133-24.181-37.704"/>
  <path fill="#72b546" d="M436.087 286.974c14.297 21.614 28.613 43.217 42.885 64.848 13.196 19.999 26.431 39.972 39.486 60.063 10.036 15.447 19.803 31.068 29.729 46.586 1.492 2.332 3.198 4.528 4.454 7.235-2.989.73-5.626 1.24-8.267 1.255-13.993.082-27.987.035-41.98.04q-124.193.037-248.385.076c-.438-.613-.877-1.226-1.645-2.303-.684-1.55-1.038-2.635-1.239-3.985.062-1.46-.03-2.655-.115-4.315.04-56.81.075-113.155.57-169.496 61.81.001 123.159-.002 184.507-.004"/>
  <path fill="#68ae45" d="M254.123 467.398c82.68-.347 165.476-.373 248.27-.397 13.994-.005 27.988.042 41.981-.04 2.64-.015 5.278-.525 8.332-.902 6.7 9.225 13.044 18.505 19.255 27.874 13.898 20.965 27.792 41.932 41.564 62.98a1597 1597 0 0 1 27.011 42.723c-3.248-.01-6.222-.592-9.197-.594-93.58-.047-187.162-.057-280.743.048-2.867.003-5.734 1.289-8.6 1.977-14.97-22.679-29.963-45.341-44.902-68.04a17393 17393 0 0 1-42.97-65.63"/>
  <path fill="#4d9840" d="M811.014 860.991c2.554 3.663 5.201 7.265 7.647 10.999 24.046 36.7 48.055 73.424 72.095 110.128.813 1.241 1.838 2.343 3.039 3.708-.598 1.538-1.268 3.078-2.372 4.186-15.897 15.967-31.853 31.875-48.058 47.595.739-1.873 1.507-3.755 2.791-5.169 2.907-3.198 6.257-6.004 9.053-9.288 1.597-1.876 2.461-4.376 3.656-6.594-2.354-.518-4.706-1.477-7.062-1.487-25.294-.109-50.588-.07-75.881-.069-17.806 0-35.613.113-53.416-.068-4.922-.05-7.68 1.715-7.885 6.69-.17 4.113.014 8.24-.138 12.354-.468 12.738-1.27 25.47-1.446 38.21-.1 7.24-1.946 9.783-9.074 9.803-15.309.043-30.618.038-45.928.052-13.992-21.154-28.035-42.275-41.963-63.471-19.67-29.934-39.255-59.923-58.818-90.51 1.333-4.356 4.438-4.07 7.479-4.07 39.143.016 78.286.011 117.429.01 7.829-.001 15.657-.05 23.486-.002 4.021.025 6.185-1.61 6.356-5.868.592-14.782 1.403-29.555 1.958-44.338.36-9.557.446-9.788 9.964-9.79 26.651-.005 53.302.013 79.952-.028 2.723-.004 5.894.716 7.136-2.983"/>
  <path fill="#57a042" d="M810.91 860.663c-1.138 4.027-4.309 3.307-7.032 3.311-26.65.041-53.301.023-79.952.028-9.518.002-9.604.233-9.964 9.79-.555 14.783-1.366 29.556-1.958 44.338-.17 4.258-2.335 5.893-6.356 5.868-7.829-.049-15.657 0-23.486.001-39.143.002-78.286.007-117.43-.008-3.04-.001-6.145-.287-7.628 3.755-26.778-39.928-53.362-80.157-79.912-120.41-6.044-9.162-11.972-18.4-17.805-28.166 3.195-1.097 6.243-2.099 9.292-2.102 77.262-.086 154.524-.067 231.786-.072 1.831 0 3.849.416 5.44-.216 1.554-.617 3.665-2.214 3.826-3.582 1.316-11.176 2.132-22.41 3.304-33.606.824-7.881 1.967-15.73 2.967-23.592 6.46 9.597 12.931 19.185 19.374 28.793 5.071 7.563 10.106 15.15 15.384 22.97 8.284 12.816 16.284 25.423 24.41 37.949 11.831 18.238 23.753 36.418 35.74 54.95"/>
  <path fill="#1388d2" d="M251.878 496.021c.028 34.014.055 68.027-.307 102.62-1.772 3.037-4.024 5.377-4.372 7.973-.982 7.32-.674 7.382-7.867 7.383-78.388.001-156.776-.004-235.165-.007-.056-27.755-.134-55.51-.162-83.265-.024-23.935.008-47.87.547-72.268 70.17-.46 139.809-.434 209.447-.543 3.004-.004 6.006-1.255 9.242-1.685 8.201 11.941 16.13 23.67 24.184 35.311 1.18 1.705 2.954 2.998 4.453 4.481"/>
  <path fill="#1174c4" d="M4.167 869.99c-.058-35.881-.12-71.763-.172-107.645-.01-7.809.018-15.617.481-23.935 5.196-1.144 9.938-2.32 14.682-2.328 71.15-.118 142.302-.133 213.452.005 6.409.012 12.815 1.24 19.223 1.904.055 29.23.12 58.46.16 87.69.017 11.46-.022 22.92-.505 34.898-3.943.817-7.416 1.38-10.89 1.383-74.816.05-149.632.06-224.448-.007-5.35-.005-10.67-.626-10.915 7.043-.011.342-.697.662-1.068.993"/>
  <path fill="#127dcb" d="M251.896 737.527c-6.47-.2-12.877-1.428-19.286-1.44-71.15-.138-142.301-.123-213.452-.005-4.744.007-9.486 1.184-14.61 1.863-.43-40.978-.478-82.002-.453-123.49 78.46-.462 156.849-.457 235.237-.458 7.193 0 6.885-.062 7.867-7.383.348-2.596 2.6-4.936 4.308-7.508.383 22.646.468 45.406.489 68.167.02 23.263-.022 46.526-.1 70.254"/>
  <path fill="#62aa44" d="M342.116 601.385c2.746-1.006 5.613-2.292 8.48-2.295 93.581-.105 187.162-.095 280.743-.048 2.975.002 5.949.583 9.356.906 14.278 21.07 28.133 42.122 41.96 63.19 5.48 8.349 10.899 16.737 16.038 25.615-4.054 1.088-7.801 2.17-11.55 2.173-87.114.095-174.228.1-261.342.032-8.305-.006-16.61-.596-24.915-.914-6.547-9.76-13.14-19.49-19.632-29.286a14841 14841 0 0 1-39.138-59.373"/>
  <path fill="#116bbe" d="M4.097 870.455c.441-.795 1.127-1.115 1.138-1.457.245-7.67 5.565-7.048 10.915-7.043 74.816.066 149.632.057 224.448.007 3.474-.003 6.947-.566 10.828-.919.461 29.84.524 59.731.567 89.623.014 9.798-.022 19.597-.504 29.812-3.106.119-5.743-.437-8.381-.438-59.073-.035-118.147-.01-177.22.005-19.933-19.486-39.9-38.936-59.717-58.54-1.315-1.3-2.06-3.76-2.08-5.692-.158-14.963-.073-29.928.006-45.358"/>
  <path fill="#7dbe48" d="M435.944 286.654c-61.205.322-122.554.325-184.385-.142-.502-16.82-.522-33.17-.536-49.988.003-53.916.014-107.363-.01-160.81-.01-22.977-.093-45.954.003-69.137.428-.39.711-.572.994-.753 17.294 26.264 34.623 52.506 51.875 78.799 26.718 40.716 53.426 81.438 80.05 122.216 10.516 16.107 20.722 32.416 31.205 48.545 6.76 10.4 13.765 20.64 20.804 31.27"/>
  <path fill="#6dbb62" d="M250.87 6.784c.05 22.976.133 45.953.143 68.93.024 53.447.013 106.894-.46 160.812-45.379.472-90.28.471-135.183.477-3.13 0-6.26.05-9.734.057-.806-.015-1.267-.01-1.702-.027.026-.02.019.045-.007-.288-.687-1.13-1.35-1.928-1.98-2.727.031-.002.012.058-.014-.275-.688-1.13-1.35-1.928-1.982-2.728.032-.001.01.057-.002-.317-3.707-5.792-7.402-11.21-11.066-16.64.03-.013.03.053.007-.283-.69-1.13-1.357-1.926-1.993-2.73.031-.01.027.056.003-.279-.688-1.13-1.353-1.927-1.986-2.731.032-.007.022.057-.003-.277-.69-1.13-1.355-1.926-1.987-2.728.032-.005.019.059-.007-.275-.69-1.13-1.356-1.927-1.989-2.726.032-.004.018.06-.009-.274-.687-1.133-1.348-1.933-1.977-2.734.032 0 .014.06-.013-.272-.69-1.132-1.352-1.931-1.983-2.73.032-.002.013.06-.003-.316-1.42-3.293-2.821-6.212-4.044-9.402 5.813-5.995 11.504-11.662 17.028-17.488 1.059-1.116 1.46-2.856 2.163-4.308 1.99-2.016 3.978-4.033 6.595-6.18.864-.555 1.1-.98 1.335-1.405 0 0-.006.092.296.143.43-.346.561-.743.691-1.14 0 0 0 .084.305.137.435-.343.565-.74.695-1.137 0 0 0 .084.305.137.435-.344.565-.74.695-1.137 0 0 0 .084.304.136.435-.344.565-.74.696-1.137 0 0 0 .085.303.135.434-.346.565-.74.697-1.135 0 0 0 .084.302.133.434-.346.565-.74.697-1.134 0 0 0 .085.302.133.434-.345.566-.74.698-1.133 0 0 0 .085.302.133.434-.346.566-.74.698-1.133 0 0 0 .085.301.132.434-.345.567-.739.7-1.132 0 0 0 .085.3.132.434-.346.567-.74.7-1.132 0 0 0 .086.3.13.433-.346.567-.738.7-1.13 0 0 0 .086.299.129.433-.348.567-.739.702-1.129 0 0 0 .086.297.128.433-.349.568-.738.703-1.128 0 0 0 .087.297.127.432-.35.567-.738.703-1.127 0 0 0 .086.296.126.433-.35.568-.738.703-1.126 0 0-.003.076.3.212.738-.1 1.261-.249 1.595-.585 23.038-23.234 46.072-46.473 69.04-69.776.733-.744.778-2.167 1.144-3.274 1.655-1.685 3.31-3.371 5.595-5.167.863-.546 1.096-.982 1.328-1.417 0 0-.006.086.303.15.433-.34.557-.743.681-1.147 0 0 0 .076.314.143.438-.337.562-.74.686-1.144 0 0 0 .077.313.143.438-.337.562-.74.687-1.143 0 0 0 .077.312.142.438-.337.563-.74.688-1.142 0 0 0 .077.312.141.437-.337.563-.739.688-1.141 0 0 0 .077.31.14.438-.338.564-.739.69-1.14 0 0 0 .077.31.138.437-.34.564-.739.69-1.138 0 0 0 .078.31.136.436-.34.563-.738.69-1.136 0 0 0 .078.31.135.435-.34.563-.738.69-1.136 0 0 0 .079.309.136.436-.341.564-.738.692-1.136 0 0 0 .079.307.135.436-.341.564-.738.693-1.135 0 0 0 .079.306.134.436-.342.565-.738.694-1.134 0 0 0 .08.305.131.435-.342.566-.737.696-1.131 0 0 0 .08.304.13.435-.343.566-.736.696-1.13 0 0 0 .08.304.13.435-.344.566-.737.697-1.13 0 0 0 .08.303.13.434-.345.566-.737.697-1.13 0 0 0 .081.303.129.434-.345.566-.737.697-1.129 0 0 0 .081.302.128.434-.345.566-.737.698-1.128 0 0 0 .081.301.126.434-.346.567-.736.7-1.127 0 0-.005.07.3.211 2.037-1.377 3.854-2.81 5.487-4.427 10.718-10.616 21.396-21.271 32.087-31.914"/>
  <path fill="#5da644" d="M400.944 690.397c8.247-.035 16.552.555 24.857.561 87.114.068 174.228.063 261.342-.032 3.749-.004 7.496-1.085 11.605-1.82 4.43 5.77 8.5 11.693 12.898 17.71 1.603 2.901 2.876 5.71 4.253 8.851-.897 8.196-2.04 16.044-2.864 23.925-1.172 11.195-1.988 22.43-3.304 33.606-.16 1.368-2.272 2.965-3.826 3.582-1.591.632-3.609.216-5.44.216-77.262.005-154.524-.014-231.786.072-3.05.003-6.097 1.005-9.442 1.793-18.286-27.142-36.275-54.534-54.26-81.93a123 123 0 0 1-4.033-6.534"/>
  <path fill="#1492d9" d="M223.008 455.988c-3.003.67-6.005 1.922-9.009 1.926-69.638.109-139.277.082-209.374.079-.507-41.692-.556-83.381-.073-125.534 45.193-.462 89.854-.461 134.777-.26 1.44 1.798 2.679 3.355 3.789 4.999a70570 70570 0 0 1 58.039 86.107c7.39 11.095 14.62 21.889 21.851 32.683"/>
  <path fill="#75ae41" d="M909.965 205.66c-2.811.647-5.775 1.292-8.738 1.295-61.119.059-122.237.054-183.356.01-2.638-.002-5.276-.504-8.31-.874-.449-16.759-.54-33.418-.55-50.077-.029-48.653-.025-97.306-.033-145.96V3.21c67.628 68.07 134.232 135.11 200.987 202.45"/>
  <path fill="#46923f" d="M658.142 1082.367c15.203-.34 30.512-.335 45.821-.378 7.128-.02 8.973-2.562 9.074-9.803.177-12.74.978-25.472 1.446-38.21.152-4.114-.032-8.241.138-12.354.206-4.975 2.963-6.74 7.885-6.69 17.803.181 35.61.068 53.416.068 25.293 0 50.587-.04 75.88.07 2.357.01 4.709.968 7.063 1.486-1.195 2.218-2.059 4.718-3.656 6.594-2.796 3.284-6.146 6.09-9.053 9.288-1.284 1.414-2.052 3.296-3.087 5.33-.909 1.352-1.736 2.39-2.668 3.323q-61.405 61.421-122.83 122.823c-1.044 1.044-2.16 2.016-3.7 3.448-7.07-10.79-13.965-21.335-20.884-31.865-11.571-17.607-23.159-35.203-34.845-53.13"/>
  <path fill="#1063b9" d="M66.033 980.35c58.928-.32 118.002-.345 177.075-.31 2.638.001 5.275.557 8.32.903.447 33.406.488 66.764.072 100.686-3.259.833-6.06 1.327-8.864 1.335-21.799.065-43.598.001-65.396.085-2.43.01-4.857.693-7.285 1.064-3.807-3.697-7.66-7.346-11.414-11.096-30.798-30.777-61.578-61.573-92.508-92.668"/>
  <path fill="#149bdf" d="m139.068 331.999-134.442-.004c-.515-25.288-.61-50.575-.54-75.862.004-1.57.922-3.495 2.04-4.649 15.678-16.18 31.464-32.256 47.585-48.153 1.296 2.13 2.018 4.199 3.199 5.96a75733 75733 0 0 0 76.716 114.086c.916 1.361 2.16 2.502 3.364 4.057a314 314 0 0 0 2.078 4.565"/>
  <path fill="#1285bd" d="M136.877 327.122c-1.091-1.243-2.335-2.384-3.251-3.745A75733 75733 0 0 1 56.91 209.29c-1.181-1.76-1.903-3.83-2.903-6.126-.064-.694.074-.94.731-1.378.658-.503.935-.74 1.212-.975 2.08-2.202 4.158-4.404 6.722-6.929.781-.531 1.078-.739 1.375-.946 0 0 .001.111.087-.116.33-.486.574-.745.817-1.005 1.43-1.551 2.86-3.103 4.983-4.712.956-.025 1.219.008 1.524.365 1.863 3.086 3.682 5.848 5.501 8.61 0 0 .019-.06.055.25.67 1.125 1.306 1.94 1.942 2.753 0 0 .018-.06.05.251.669 1.127 1.304 1.942 1.94 2.756 0 0 .014-.063.047.252.672 1.125 1.31 1.937 1.95 2.749 0 0 .013-.064.043.253.67 1.128 1.31 1.939 1.95 2.75 0 0 .01-.064.038.256.668 1.131 1.31 1.942 1.95 2.753 0 0 .004-.066.033.258.67 1.133 1.313 1.942 1.956 2.752 0 0 0-.066.045.293 3.698 5.796 7.351 11.232 11.004 16.668 0 0 .02-.058.054.254.67 1.125 1.306 1.937 1.943 2.75 0 0 .02-.06.05.253.669 1.125 1.306 1.937 1.944 2.749 0 0 .007-.066.042.263.662 1.141 1.289 1.955 1.924 2.735.008-.032-.057-.019.012.29.709 1.122 1.347 1.934 1.987 2.714.001-.033-.063-.018.005.292.705 1.123 1.342 1.937 1.978 2.717-.002-.034-.063-.007.02.337 16.8 26.064 33.518 51.784 49.835 77.657-5.638.41-10.894.488-16.108 1-2.301.227-4.517 1.333-6.771 2.04"/>
  <path fill="#105cb4" d="M170.096 1084.412c2.287-.67 4.714-1.354 7.144-1.363 21.798-.084 43.597-.02 65.396-.085 2.803-.008 5.605-.502 8.803-.87.395 27.514.395 55.127.395 84.238-27.72-27.728-54.658-54.674-81.738-81.92"/>
  <path fill="#1179b5" d="M223.24 456.229c-7.462-11.035-14.693-21.83-22.08-33.343-.487-4.549 1.365-5.778 5.078-5.978 4.612-.25 9.182-1.255 14.018-1.704a164 164 0 0 1 3.59 5.196q13.564 20.325 27.126 40.654c.354 1.085.708 2.17 1.131 3.594.021 10.373-.027 20.408-.15 30.908-1.574-1.018-3.349-2.311-4.528-4.016-8.054-11.641-15.983-23.37-24.184-35.311"/>
  <path fill="#1aafe0" d="M186.816 68.735c-.096.87-.14 2.293-.874 3.037-22.968 23.303-46.002 46.542-69.04 69.776-.334.336-.857.484-1.633.583 3.049-4.048 6.223-8.173 9.865-11.832 20.409-20.505 40.93-40.896 61.682-61.564m64.2-62.158a8375 8375 0 0 1-32.232 32.12c-1.633 1.619-3.45 3.051-5.522 4.426.483-1.482 1.084-3.039 2.161-4.124 10.853-10.926 21.755-21.805 32.75-32.588.862-.846 2.524-.877 3.826-.937-.272.531-.555.713-.983 1.103M71.415 187.144c-.262-.033-.525-.066-1.181-.152 6.844-7.372 14.082-14.69 21.588-22.248-.436 1.213-.836 2.953-1.895 4.07-5.524 5.825-11.215 11.492-17.253 17.565-.683.502-.968.64-1.259.765M194.727 60.993c.142.328.018.731-.458 1.068-.171-.376.01-.684.458-1.068m1.999-2.001c.142.327.018.73-.458 1.067-.17-.374.01-.683.458-1.067m1-1c.142.327.017.73-.459 1.066-.17-.374.011-.682.459-1.066m-2 2c.143.328.019.73-.457 1.068-.171-.375.01-.683.457-1.068m3-3c.142.326.016.728-.46 1.065-.169-.373.012-.681.46-1.065m14.002-14.002c.136.315.003.705-.472 1.05-.16-.354.022-.664.472-1.05m-13.002 13.001c.141.326.015.727-.46 1.065-.169-.372.012-.68.46-1.065m1.001-1c.14.324.013.724-.463 1.063-.167-.37.014-.679.463-1.063m.999-1.001c.14.324.013.723-.463 1.062-.166-.368.015-.677.463-1.061m1-1.001c.14.323.012.721-.463 1.061-.166-.367.015-.676.463-1.06m1-1.001c.14.323.012.72-.464 1.06-.166-.366.016-.675.464-1.06m1-1c.14.322.01.719-.464 1.06-.166-.366.015-.675.464-1.06m1-1c.139.321.01.717-.465 1.059-.165-.365.016-.674.465-1.06m1.001-.999c.138.32.007.714-.467 1.056-.164-.361.017-.671.467-1.056m1-1c.138.319.007.712-.468 1.055-.163-.36.019-.67.468-1.055m1.001-1c.137.318.006.711-.47 1.055-.162-.36.02-.67.47-1.055m1-1c.137.318.005.71-.47 1.054-.161-.358.02-.668.47-1.054m1-1c.137.317.005.71-.47 1.054-.161-.358.02-.668.47-1.054m1-1c.136.316.004.708-.47 1.053-.161-.357.02-.667.47-1.053M109.739 146.999c.135.315.002.708-.475 1.054-.16-.357.024-.667.475-1.054m-10.025 10.025c.07.321-.165.746-.795 1.11-.1-.375.194-.69.795-1.11m9.024-9.026c.136.316.003.71-.473 1.055-.16-.357.022-.667.473-1.055m-1 1c.136.317.004.71-.473 1.056-.161-.358.022-.668.473-1.056m-1 1c.136.317.004.71-.472 1.056-.162-.358.021-.668.472-1.056m-1 1.001c.136.316.005.71-.471 1.056-.162-.359.02-.669.471-1.056m-.999 1.001c.136.316.005.711-.472 1.057-.162-.36.021-.67.472-1.058M103.74 153c.136.319.006.715-.471 1.06-.163-.363.02-.673.47-1.06m-.999 1c.137.32.007.716-.47 1.06-.164-.363.019-.672.47-1.06m-1 1c.137.32.007.717-.47 1.06-.164-.363.019-.672.47-1.06m-1 1c.137.32.007.717-.47 1.06-.164-.363.02-.672.47-1.06m92.961-93.984c.076.333-.157.769-.789 1.131-.106-.391.188-.71.79-1.13m-82.962 83.982c.134.314 0 .706-.476 1.053-.16-.356.024-.666.475-1.053"/>
  <path fill="#149bdf" d="M64.7 191.945c.008.13-.236.389-.622.876.029-.097.199-.422.621-.876m-.934 1.052c-.015.146-.312.354-.794.76.047-.1.28-.4.794-.76m-8.068 7.937c-.024.113-.3.349-.745.8.052-.081.272-.38.745-.8"/>
  <path fill="#1aafe0" d="M111.74 144.999c.133.312-.001.703-.477 1.05-.159-.352.025-.663.476-1.05m1.001-1.001c.133.313-.002.702-.478 1.05-.158-.351.026-.662.477-1.05m1.001-1c.132.312-.003.7-.478 1.05-.158-.351.025-.662.477-1.05m1-1c.133.311-.002.7-.478 1.049-.157-.35.026-.661.478-1.05"/>
  <path fill="#66b35e" d="M105.98 237.079c3.13-.027 6.26-.075 9.39-.076 44.902-.006 89.804-.005 135.177-.009.49 16.348.51 32.698.55 49.514-.012 56.81-.046 113.156-.317 169.73-8.345-11.982-16.474-24.18-24.558-36.408-37.396-56.568-74.77-113.149-112.213-169.686-1.047-1.581-2.766-2.718-4.171-4.062 0 0 .061-.027.038-.329-.69-1.099-1.355-1.895-2.021-2.69 0 0 .064-.016.035-.318-.695-1.097-1.362-1.892-2.028-2.688 0 0 .065-.013.08-.36.024-1.105.031-1.862.039-2.618"/>
  <path fill="#549a5a" d="M109.921 246.426c1.322 1 3.04 2.137 4.088 3.718 37.442 56.537 74.817 113.118 112.213 169.686a7234 7234 0 0 0 24.551 36.873c.322 1.43.414 2.626.352 4.086-9.195-13.287-18.236-26.839-27.279-40.389-1.107-1.66-2.228-3.311-3.704-5.518-7.006-10.719-13.608-20.914-20.302-31.048-13.2-19.986-26.453-39.938-39.684-59.904-16.717-25.72-33.435-51.44-50.235-77.504m-9.971-15.728c-3.64-5.062-7.294-10.498-11.022-16.28a389 389 0 0 1 11.021 16.28m-28.491-43.23c.248-.45.533-.587 1.037-.816 1.627 2.84 3.029 5.758 4.448 9.051-1.803-2.387-3.622-5.149-5.485-8.235m17.432 26.307c-.62-.474-1.262-1.283-1.965-2.407.608.481 1.275 1.277 1.965 2.407m-5.973-9.02c-.613-.478-1.252-1.29-1.956-2.412.6.485 1.265 1.282 1.956 2.412m-1.997-3c-.61-.481-1.245-1.296-1.945-2.422.596.49 1.257 1.29 1.944 2.422m-1.99-3.006c-.609-.482-1.244-1.296-1.947-2.42.595.489 1.257 1.288 1.947 2.42m5.982 9.009c-.615-.477-1.255-1.288-1.957-2.41.602.484 1.267 1.28 1.957 2.41m1.989 3.008c-.617-.476-1.258-1.287-1.958-2.41.605.483 1.27 1.28 1.958 2.41m15.033 22.977c-.61-.48-1.247-1.292-1.949-2.416.599.488 1.261 1.285 1.95 2.416m1.993 3.002c-.612-.479-1.25-1.29-1.949-2.414.6.486 1.262 1.284 1.95 2.414m1.708.315c.337.775.33 1.532.298 2.669-.65-.433-1.277-1.247-1.964-2.368.4-.312.86-.316 1.666-.301"/>
  <path fill="#117eb8" d="M159.756 324.083c13.63 19.813 26.883 39.765 40.084 59.75 6.694 10.135 13.296 20.33 20.054 30.82-4.474 1-9.044 2.005-13.656 2.255-3.713.2-5.565 1.43-5.237 5.678-19.294-28.186-38.58-56.792-57.883-85.388-1.11-1.644-2.35-3.2-3.79-4.999-.915-1.618-1.57-3.035-2.338-4.765 2.141-1.018 4.357-2.124 6.658-2.35 5.214-.513 10.47-.592 16.108-1"/>
  <path fill="#549a5a" d="M105.931 240.366c.597.487 1.264 1.282 1.958 2.412-.611-.478-1.25-1.29-1.958-2.412m1.992 3.006c.598.486 1.264 1.282 1.955 2.414-.613-.477-1.25-1.29-1.955-2.414"/>
</svg>
